<?xml version="1.0" encoding="UTF-8" standalone="no"?>
<svg
   xmlns:dc="http://purl.org/dc/elements/1.1/"
   xmlns:cc="http://creativecommons.org/ns#"
   xmlns:rdf="http://www.w3.org/1999/02/22-rdf-syntax-ns#"
   xmlns:svg="http://www.w3.org/2000/svg"
   xmlns="http://www.w3.org/2000/svg"
   viewBox="0 0 666.66669 666.66669"
   height="666.66669"
   width="666.66669"
   xml:space="preserve"
   id="svg2"
   version="1.1"><metadata
     id="metadata8"><rdf:RDF><cc:Work
         rdf:about=""><dc:format>image/svg+xml</dc:format><dc:type
           rdf:resource="http://purl.org/dc/dcmitype/StillImage" /></cc:Work></rdf:RDF></metadata><defs
     id="defs6"><clipPath
       id="clipPath18"
       clipPathUnits="userSpaceOnUse"><path
         id="path16"
         d="M 0,500 H 500 V 0 H 0 Z" /></clipPath><clipPath
       id="clipPath114"
       clipPathUnits="userSpaceOnUse"><path
         id="path112"
         d="M 0,500 H 500 V 0 H 0 Z" /></clipPath><clipPath
       id="clipPath126"
       clipPathUnits="userSpaceOnUse"><path
         id="path124"
         d="M 0,500 H 500 V 0 H 0 Z" /></clipPath><clipPath
       id="clipPath158"
       clipPathUnits="userSpaceOnUse"><path
         id="path156"
         d="M 0,500 H 500 V 0 H 0 Z" /></clipPath><clipPath
       id="clipPath174"
       clipPathUnits="userSpaceOnUse"><path
         id="path172"
         d="M 129.572,188.087 H 238.361 V 83.6667 H 129.572 Z" /></clipPath><clipPath
       id="clipPath258"
       clipPathUnits="userSpaceOnUse"><path
         id="path256"
         d="m 199.646,277.427 h 49.618 v -51.773 h -49.618 z" /></clipPath></defs><g
     transform="matrix(1.3333333,0,0,-1.3333333,0,666.66667)"
     id="g10"><g
       id="g12"><g
         clip-path="url(#clipPath18)"
         id="g14"><g
           transform="translate(366.7106,324.5807)"
           id="g20"><path
             id="path22"
             style="fill:#e1e1e1;fill-opacity:1;fill-rule:nonzero;stroke:none"
             d="M 0,0 -40.604,-19.263 33.398,-36.443 5.274,-1.208 C 4.013,0.373 1.825,0.874 0,0" /></g><g
           transform="translate(389.4615,245.029)"
           id="g24"><path
             id="path26"
             style="fill:#e1e1e1;fill-opacity:1;fill-rule:nonzero;stroke:none"
             d="m 0,0 -72.532,16.839 c -0.477,0.11 -0.774,0.587 -0.663,1.063 l 9.757,42.026 c 0.045,0.199 0.245,0.323 0.444,0.277 L 10.543,43.133 c 0.2,-0.046 0.324,-0.245 0.277,-0.445 L 1.064,0.663 C 0.953,0.187 0.478,-0.11 0,0" /></g><g
           transform="translate(395.3112,288.1926)"
           id="g28"><path
             id="path30"
             style="fill:#ffffff;fill-opacity:1;fill-rule:nonzero;stroke:none"
             d="m 0,0 -34.732,-11.679 -30.555,25.377 5.39,20.318 c 0.547,2.196 2.755,3.547 4.959,3.036 L 1.314,23.993 c 2.23,-0.518 3.619,-2.745 3.101,-4.975 z" /></g><g
           transform="translate(358.3805,279.9479)"
           id="g32"><path
             id="path34"
             style="fill:#e1e1e1;fill-opacity:1;fill-rule:nonzero;stroke:none"
             d="m 0,0 -41.565,-14.502 c -0.424,-1.825 0.712,-3.647 2.537,-4.071 l 67.731,-15.715 c 1.825,-0.424 3.648,0.713 4.071,2.537 l 0.059,0.254 L 3.76,-0.91 C 2.794,0.105 1.323,0.462 0,0" /></g><g
           transform="translate(362.4352,308.0641)"
           id="g36"><path
             id="path38"
             style="fill:#e1e1e1;fill-opacity:1;fill-rule:nonzero;stroke:none"
             d="M 0,0 -22.01,5.106 -21.488,7.355 0.521,2.248 Z" /></g><g
           transform="translate(387.8678,295.8566)"
           id="g40"><path
             id="path42"
             style="fill:#f5f5f5;fill-opacity:1;fill-rule:nonzero;stroke:none"
             d="m 0,0 -48.83,11.33 0.589,2.538 48.83,-11.33 z" /></g><g
           transform="translate(386.4283,289.6525)"
           id="g44"><path
             id="path46"
             style="fill:#f5f5f5;fill-opacity:1;fill-rule:nonzero;stroke:none"
             d="m 0,0 -48.831,11.33 0.59,2.538 48.83,-11.33 z" /></g><g
           transform="translate(384.2115,284.4367)"
           id="g48"><path
             id="path50"
             style="fill:#f5f5f5;fill-opacity:1;fill-rule:nonzero;stroke:none"
             d="m 0,0 -2.049,-0.666 -41.228,9.049 -4.186,3.537 0.084,0.607 L 1.293,1.234 1.098,0.393 Z" /></g><g
           transform="translate(370.0719,279.7057)"
           id="g52"><path
             id="path54"
             style="fill:#f5f5f5;fill-opacity:1;fill-rule:nonzero;stroke:none"
             d="M 0,0 -18.468,4.285 -22.893,7.986 4.706,1.583 Z" /></g><g
           transform="translate(356.8639,279.4191)"
           id="g56"><path
             id="path58"
             style="fill:#ececec;fill-opacity:1;fill-rule:nonzero;stroke:none"
             d="m 0,0 c 0.012,-0.034 -0.541,-0.259 -1.552,-0.636 -1.098,-0.397 -2.546,-0.92 -4.296,-1.552 -3.635,-1.289 -8.67,-3.036 -14.241,-4.934 -5.572,-1.899 -10.625,-3.59 -14.291,-4.79 -1.771,-0.568 -3.236,-1.038 -4.348,-1.395 -1.031,-0.318 -1.605,-0.478 -1.616,-0.443 -0.01,0.034 0.543,0.259 1.554,0.636 1.099,0.397 2.547,0.92 4.297,1.552 3.636,1.289 8.669,3.036 14.24,4.934 5.568,1.898 10.619,3.589 14.285,4.788 1.772,0.569 3.238,1.039 4.35,1.395 C -0.587,-0.126 -0.012,0.034 0,0" /></g><g
           transform="translate(391.2125,248.4518)"
           id="g60"><path
             id="path62"
             style="fill:#ececec;fill-opacity:1;fill-rule:nonzero;stroke:none"
             d="m 0,0 c -0.104,-0.099 -6.384,6.326 -14.024,14.349 -7.644,8.026 -13.754,14.61 -13.65,14.709 0.104,0.099 6.383,-6.324 14.027,-14.35 C -6.007,6.685 0.104,0.1 0,0" /></g><g
           transform="translate(396.9703,288.7609)"
           id="g64"><path
             id="path66"
             style="fill:#ececec;fill-opacity:1;fill-rule:nonzero;stroke:none"
             d="m 0,0 c 0.013,-0.034 -0.437,-0.234 -1.258,-0.568 -0.821,-0.334 -2.016,-0.799 -3.5,-1.359 -2.965,-1.12 -7.081,-2.615 -11.657,-4.181 -4.577,-1.568 -8.746,-2.91 -11.776,-3.839 -1.516,-0.465 -2.746,-0.829 -3.6,-1.067 -0.855,-0.238 -1.332,-0.354 -1.343,-0.319 -0.011,0.034 0.446,0.214 1.281,0.512 0.933,0.322 2.124,0.733 3.548,1.224 3.096,1.052 7.193,2.443 11.722,3.981 4.52,1.559 8.609,2.97 11.701,4.035 1.427,0.483 2.619,0.887 3.555,1.204 C -0.484,-0.103 -0.013,0.034 0,0" /></g><g
           transform="translate(356.8639,279.4191)"
           id="g68"><path
             id="path70"
             style="fill:#ececec;fill-opacity:1;fill-rule:nonzero;stroke:none"
             d="m 0,0 c -0.023,-0.027 -0.468,0.32 -1.25,0.971 -0.853,0.711 -1.966,1.639 -3.308,2.759 -2.88,2.365 -6.73,5.524 -10.985,9.017 -4.3,3.514 -8.161,6.738 -10.895,9.142 -1.37,1.2 -2.463,2.187 -3.204,2.887 -0.741,0.698 -1.139,1.096 -1.115,1.123 0.024,0.027 0.468,-0.321 1.25,-0.971 0.852,-0.711 1.965,-1.639 3.308,-2.759 2.881,-2.365 6.73,-5.525 10.986,-9.019 C -10.914,9.638 -7.054,6.414 -4.319,4.01 -2.95,2.81 -1.855,1.823 -1.115,1.123 -0.374,0.425 0.024,0.026 0,0" /></g><g
           transform="translate(395.3112,288.1926)"
           id="g72"><path
             id="path74"
             style="fill:#e1e1e1;fill-opacity:1;fill-rule:nonzero;stroke:none"
             d="m 0,0 c -0.009,0.002 0.004,0.099 0.039,0.286 0.043,0.215 0.097,0.487 0.165,0.827 0.165,0.761 0.395,1.821 0.686,3.168 0.626,2.784 1.517,6.748 2.615,11.63 0.14,0.614 0.282,1.242 0.428,1.884 0.131,0.642 0.338,1.305 0.379,1.944 0.084,1.304 -0.565,2.697 -1.744,3.473 -0.583,0.413 -1.27,0.572 -2.032,0.733 -0.745,0.171 -1.502,0.345 -2.27,0.52 -1.537,0.353 -3.118,0.717 -4.739,1.089 -6.487,1.5 -13.612,3.147 -21.091,4.876 -7.48,1.744 -14.604,3.404 -21.088,4.917 -1.62,0.379 -3.2,0.75 -4.735,1.11 -0.761,0.16 -1.539,0.408 -2.242,0.468 -0.721,0.055 -1.443,-0.11 -2.064,-0.432 -0.625,-0.321 -1.145,-0.808 -1.509,-1.379 -0.383,-0.567 -0.515,-1.231 -0.7,-1.902 -0.359,-1.325 -0.702,-2.598 -1.03,-3.814 -1.317,-4.828 -2.385,-8.748 -3.136,-11.501 -0.373,-1.326 -0.667,-2.37 -0.878,-3.12 -0.1,-0.332 -0.179,-0.598 -0.242,-0.808 -0.057,-0.181 -0.09,-0.273 -0.099,-0.271 -0.009,0.003 0.008,0.099 0.048,0.285 0.05,0.213 0.112,0.484 0.191,0.821 0.189,0.756 0.45,1.808 0.783,3.145 0.713,2.763 1.727,6.696 2.977,11.541 0.317,1.218 0.65,2.494 0.996,3.822 0.175,0.646 0.317,1.391 0.737,2.024 0.399,0.636 0.971,1.179 1.661,1.54 0.687,0.362 1.49,0.549 2.294,0.493 0.823,-0.071 1.537,-0.308 2.317,-0.466 1.537,-0.353 3.118,-0.716 4.739,-1.089 6.487,-1.5 13.614,-3.147 21.097,-4.877 7.477,-1.743 14.598,-3.404 21.083,-4.916 1.619,-0.379 3.198,-0.75 4.733,-1.109 0.768,-0.181 1.524,-0.358 2.268,-0.534 C 1.363,24.223 2.176,24.031 2.81,23.57 4.113,22.699 4.816,21.155 4.713,19.717 4.657,18.984 4.444,18.353 4.309,17.708 4.157,17.067 4.009,16.44 3.863,15.828 2.698,10.961 1.752,7.011 1.087,4.235 0.755,2.897 0.494,1.845 0.307,1.089 0.218,0.754 0.146,0.486 0.091,0.273 0.039,0.091 0.009,-0.002 0,0" /></g><g
           transform="translate(299.5094,407.3405)"
           id="g76"><path
             id="path78"
             style="fill:#ececec;fill-opacity:1;fill-rule:nonzero;stroke:none"
             d="M 0,0 69.251,12.877 79.596,-33.92 7.678,-46.067 Z" /></g><g
           transform="translate(368.7604,420.218)"
           id="g80"><path
             id="path82"
             style="fill:#e1e1e1;fill-opacity:1;fill-rule:nonzero;stroke:none"
             d="m 0,0 c 0.007,-0.005 -0.034,-0.072 -0.12,-0.196 -0.106,-0.147 -0.234,-0.325 -0.391,-0.543 -0.378,-0.506 -0.892,-1.193 -1.542,-2.06 -1.386,-1.815 -3.346,-4.378 -5.761,-7.537 -4.935,-6.375 -11.723,-15.143 -19.267,-24.887 l -0.134,-0.173 -0.193,0.103 c -0.424,0.224 -0.882,0.465 -1.342,0.709 -11.188,5.948 -21.313,11.332 -28.69,15.254 -3.629,1.957 -6.58,3.549 -8.666,4.675 -0.988,0.546 -1.77,0.978 -2.344,1.295 -0.243,0.14 -0.441,0.254 -0.604,0.348 -0.134,0.081 -0.202,0.127 -0.197,0.135 0.004,0.007 0.079,-0.022 0.222,-0.088 0.17,-0.081 0.376,-0.181 0.628,-0.302 0.585,-0.296 1.382,-0.699 2.389,-1.209 2.106,-1.09 5.082,-2.632 8.743,-4.528 7.397,-3.888 17.547,-9.224 28.763,-15.12 0.459,-0.243 0.917,-0.485 1.341,-0.709 l -0.327,-0.07 c 7.594,9.706 14.425,18.44 19.391,24.79 2.469,3.116 4.473,5.646 5.891,7.436 0.682,0.843 1.222,1.51 1.618,2.001 0.173,0.205 0.315,0.374 0.431,0.512 C -0.062,-0.05 -0.008,0.005 0,0" /></g><g
           transform="translate(307.1871,361.2731)"
           id="g84"><path
             id="path86"
             style="fill:#e1e1e1;fill-opacity:1;fill-rule:nonzero;stroke:none"
             d="M 0,0 C -0.121,0.078 4.333,7.14 9.946,15.771 15.562,24.405 20.21,31.338 20.33,31.26 20.451,31.182 15.998,24.121 10.383,15.487 4.77,6.856 0.12,-0.079 0,0" /></g><g
           transform="translate(379.1051,373.4201)"
           id="g88"><path
             id="path90"
             style="fill:#e1e1e1;fill-opacity:1;fill-rule:nonzero;stroke:none"
             d="m 0,0 c -0.089,-0.113 -6.566,4.846 -14.466,11.075 -7.902,6.23 -14.234,11.371 -14.145,11.484 0.089,0.113 6.565,-4.845 14.467,-11.076 C -6.244,5.255 0.089,0.113 0,0" /></g><g
           transform="translate(410.5748,374.9787)"
           id="g92"><path
             id="path94"
             style="fill:#f5f5f5;fill-opacity:1;fill-rule:nonzero;stroke:none"
             d="M 0,0 45.924,-11.127 39.41,-42.612 -7.946,-30.306 Z" /></g><g
           transform="translate(456.4987,363.8517)"
           id="g96"><path
             id="path98"
             style="fill:#e1e1e1;fill-opacity:1;fill-rule:nonzero;stroke:none"
             d="m 0,0 c 0.008,-0.016 -0.167,-0.128 -0.507,-0.328 -0.391,-0.221 -0.889,-0.504 -1.503,-0.851 -1.375,-0.753 -3.266,-1.788 -5.583,-3.056 -4.796,-2.569 -11.34,-6.073 -18.612,-9.968 l -0.192,-0.103 -0.135,0.173 c -0.198,0.254 -0.412,0.528 -0.627,0.802 -5.197,6.706 -9.901,12.773 -13.355,17.229 -1.658,2.18 -3.014,3.963 -3.999,5.257 -0.436,0.592 -0.79,1.071 -1.067,1.446 -0.239,0.334 -0.358,0.515 -0.344,0.526 0.014,0.011 0.161,-0.148 0.427,-0.461 0.297,-0.36 0.676,-0.819 1.143,-1.386 1.017,-1.269 2.418,-3.018 4.131,-5.155 3.485,-4.432 8.23,-10.466 13.475,-17.135 0.214,-0.275 0.428,-0.549 0.626,-0.803 l -0.327,0.07 c 7.302,3.841 13.871,7.296 18.687,9.828 2.348,1.208 4.266,2.195 5.659,2.911 0.632,0.314 1.145,0.568 1.547,0.767 C -0.199,-0.066 -0.009,0.015 0,0" /></g><g
           transform="translate(402.6285,344.673)"
           id="g100"><path
             id="path102"
             style="fill:#e1e1e1;fill-opacity:1;fill-rule:nonzero;stroke:none"
             d="m 0,0 c -0.078,0.121 4.566,3.253 10.371,6.995 5.808,3.744 10.576,6.679 10.654,6.559 C 21.104,13.433 16.461,10.301 10.653,6.558 4.849,2.815 0.078,-0.121 0,0" /></g><g
           transform="translate(449.985,332.3664)"
           id="g104"><path
             id="path106"
             style="fill:#e1e1e1;fill-opacity:1;fill-rule:nonzero;stroke:none"
             d="m 0,0 c -0.128,-0.067 -2.766,4.729 -5.891,10.71 -3.127,5.983 -5.557,10.886 -5.429,10.953 0.127,0.066 2.764,-4.728 5.89,-10.712 C -2.304,4.97 0.127,0.066 0,0" /></g></g></g><g
       id="g108"><g
         clip-path="url(#clipPath114)"
         id="g110"><g
           transform="translate(397.8278,329.218)"
           id="g116"><path
             id="path118"
             style="fill:#f5f5f5;fill-opacity:1;fill-rule:nonzero;stroke:none"
             d="m 0,0 c 25.229,-50.271 17.249,-113.725 -14.283,-160.301 -31.533,-46.575 -83.993,-76.732 -139.157,-87.712 -39.378,-7.838 -81.741,-6.242 -117.721,11.576 -35.98,17.819 -64.272,53.668 -66.429,93.76 -0.815,15.143 2.397,31.223 12.503,42.531 16.136,18.056 43.683,18.691 67.887,17.946 24.203,-0.745 51.732,-0.18 67.948,17.804 12.459,13.818 14.293,33.863 20.858,51.272 11.164,29.602 38.097,52.716 69.05,59.258 4.299,0.909 8.656,1.494 13.032,1.767 34.044,2.126 66.334,-15.392 84.194,-44.454 z" /></g></g></g><g
       id="g120"><g
         clip-path="url(#clipPath126)"
         id="g122"><g
           transform="translate(362.8024,94.3454)"
           id="g128"><path
             id="path130"
             style="fill:#1a2e35;fill-opacity:1;fill-rule:nonzero;stroke:none"
             d="m 0,0 c 0,0 0.379,-0.126 1.107,-0.396 0.725,-0.279 1.823,-0.647 3.281,-1.059 2.905,-0.797 7.357,-1.721 13.112,-1.334 2.868,0.187 6.041,0.672 9.435,1.527 3.392,0.859 7.032,2.006 10.733,3.74 7.408,3.409 15.144,8.942 21.875,16.718 1.648,1.95 3.176,4.14 4.001,6.679 0.809,2.504 0.884,5.432 -0.376,7.895 -0.621,1.223 -1.61,2.257 -2.791,3.002 -1.181,0.759 -2.572,1.181 -3.99,1.387 -2.868,0.422 -5.834,-0.196 -8.591,-1.4 -1.4,-0.566 -2.819,-1.177 -4.346,-1.541 -1.514,-0.374 -3.182,-0.407 -4.715,0.118 -1.522,0.481 -2.964,1.665 -3.401,3.313 -0.467,1.634 0.034,3.385 0.938,4.756 0.902,1.415 2.323,2.427 3.814,3.133 1.502,0.721 3.102,1.182 4.677,1.688 3.147,1.012 6.258,2.285 9.281,3.825 3.024,1.539 5.962,3.342 8.759,5.403 1.407,1.025 2.759,2.117 3.865,3.46 1.091,1.318 1.995,2.92 1.969,4.634 -0.021,0.841 -0.256,1.69 -0.726,2.399 -0.46,0.718 -1.127,1.294 -1.869,1.747 -1.511,0.903 -3.281,1.273 -5.076,1.425 -1.796,0.175 -3.656,0.223 -5.471,0.744 -1.809,0.486 -3.547,1.727 -4.242,3.601 -0.326,0.936 -0.213,2.057 0.359,2.889 0.559,0.84 1.377,1.396 2.155,1.913 1.564,1.019 3.096,2.088 4.589,3.229 2.987,2.278 5.822,4.806 8.461,7.559 2.601,2.77 5.243,5.651 6.872,9.131 0.795,1.729 1.309,3.626 1.174,5.528 -0.086,1.905 -0.9,3.727 -2.166,5.159 -2.57,2.86 -6.679,4.186 -10.414,3.42 -3.772,-0.685 -7.104,-2.901 -9.713,-5.617 -5.274,-5.55 -7.869,-12.872 -12.193,-18.943 -1.076,-1.523 -2.262,-2.966 -3.586,-4.267 -0.666,-0.636 -1.35,-1.296 -2.205,-1.746 -0.819,-0.457 -1.961,-0.659 -2.856,-0.103 -0.882,0.542 -1.317,1.508 -1.499,2.423 -0.193,0.942 -0.083,1.877 -0.02,2.768 0.065,0.89 0.125,1.778 -0.105,2.598 -0.206,0.823 -0.652,1.58 -1.259,2.179 -1.212,1.206 -2.944,1.861 -4.637,1.831 -1.698,-0.04 -3.319,-0.852 -4.582,-1.969 -1.274,-1.129 -2.245,-2.578 -2.905,-4.133 -0.656,-1.564 -1.019,-3.235 -1.231,-4.908 -0.212,-1.676 -0.277,-3.363 -0.334,-5.042 -0.055,-1.68 -0.11,-3.35 -0.165,-5.009 -0.109,-3.318 -0.218,-6.59 -0.324,-9.816 -0.061,-1.616 -0.091,-3.208 -0.175,-4.809 -0.105,-1.594 -0.311,-3.2 -0.903,-4.699 -0.564,-1.488 -1.712,-2.857 -3.27,-3.365 -1.547,-0.538 -3.201,-0.239 -4.628,0.3 -2.861,1.172 -5.256,3.128 -7.134,5.4 -0.941,1.139 -1.731,2.385 -2.381,3.676 -0.65,1.287 -1.209,2.593 -1.97,3.749 -0.745,1.151 -1.765,2.142 -3.033,2.549 -1.26,0.434 -2.652,0.228 -3.851,-0.274 -1.201,-0.526 -2.265,-1.351 -3.045,-2.375 -0.796,-1.012 -1.27,-2.232 -1.563,-3.461 -0.555,-2.487 -0.447,-5.031 -0.655,-7.475 -0.168,-2.442 -0.249,-4.824 -0.281,-7.142 -0.052,-4.634 0.245,-9.006 0.792,-13.052 0.551,-4.046 1.337,-7.782 2.421,-11.109 0.464,-1.689 1.147,-3.223 1.691,-4.723 0.312,-0.734 0.658,-1.432 0.972,-2.122 0.326,-0.684 0.608,-1.37 0.984,-1.984 C -8.624,8.558 -5.655,5.14 -3.464,3.06 -2.952,2.498 -2.425,2.087 -1.988,1.713 -1.552,1.341 -1.185,1.028 -0.886,0.774 -0.295,0.27 0,0 0,0 0,0 -0.316,0.241 -0.919,0.733 -1.223,0.982 -1.597,1.288 -2.04,1.652 c -0.443,0.369 -0.978,0.775 -1.496,1.332 -2.221,2.06 -5.227,5.47 -8.003,10.542 -0.381,0.616 -0.667,1.302 -0.998,1.988 -0.319,0.691 -0.671,1.391 -0.987,2.127 -0.554,1.503 -1.247,3.041 -1.719,4.736 -1.103,3.337 -1.906,7.084 -2.474,11.143 -0.561,4.06 -0.874,8.446 -0.835,13.094 0.027,2.324 0.101,4.714 0.264,7.163 0.202,2.433 0.082,4.97 0.645,7.535 0.298,1.266 0.788,2.539 1.623,3.609 0.818,1.076 1.927,1.94 3.192,2.498 1.263,0.533 2.752,0.763 4.126,0.294 1.383,-0.441 2.473,-1.511 3.246,-2.701 0.789,-1.198 1.354,-2.516 1.999,-3.785 0.643,-1.269 1.415,-2.483 2.338,-3.597 1.834,-2.218 4.209,-4.14 6.966,-5.261 1.374,-0.518 2.93,-0.783 4.331,-0.29 1.415,0.467 2.461,1.699 3,3.117 1.104,2.884 0.862,6.152 1.033,9.357 0.102,3.225 0.207,6.499 0.312,9.816 0.054,1.658 0.107,3.329 0.161,5.01 0.055,1.681 0.118,3.382 0.332,5.087 0.214,1.702 0.583,3.413 1.26,5.036 0.685,1.613 1.689,3.121 3.028,4.311 1.332,1.175 3.039,2.046 4.894,2.095 1.83,0.032 3.678,-0.661 5.001,-1.973 0.662,-0.653 1.161,-1.49 1.391,-2.406 0.255,-0.92 0.184,-1.864 0.12,-2.76 -0.064,-0.899 -0.161,-1.79 0.015,-2.631 0.162,-0.836 0.567,-1.668 1.263,-2.088 0.702,-0.436 1.608,-0.296 2.363,0.117 0.772,0.404 1.427,1.03 2.085,1.66 1.296,1.277 2.462,2.695 3.524,4.2 2.132,3.011 3.859,6.329 5.708,9.619 1.848,3.285 3.85,6.584 6.529,9.387 2.663,2.774 6.074,5.057 9.994,5.772 3.894,0.794 8.194,-0.577 10.896,-3.587 1.335,-1.504 2.207,-3.459 2.296,-5.472 0.141,-2.015 -0.403,-3.997 -1.222,-5.778 -1.684,-3.588 -4.355,-6.486 -6.97,-9.273 -2.659,-2.771 -5.514,-5.315 -8.522,-7.609 -1.503,-1.148 -3.052,-2.227 -4.62,-3.248 -0.771,-0.508 -1.53,-1.04 -2.009,-1.767 -0.488,-0.717 -0.579,-1.63 -0.304,-2.444 0.607,-1.644 2.2,-2.829 3.9,-3.276 1.729,-0.5 3.56,-0.554 5.378,-0.73 1.814,-0.154 3.685,-0.537 5.287,-1.497 0.791,-0.484 1.519,-1.109 2.029,-1.905 0.521,-0.788 0.782,-1.73 0.805,-2.663 0.021,-1.904 -0.96,-3.592 -2.087,-4.956 -1.143,-1.387 -2.546,-2.515 -3.955,-3.539 -2.822,-2.076 -5.782,-3.89 -8.831,-5.438 -3.048,-1.548 -6.185,-2.828 -9.357,-3.844 -1.583,-0.507 -3.164,-0.963 -4.619,-1.66 -1.452,-0.687 -2.783,-1.639 -3.631,-2.966 -0.855,-1.29 -1.306,-2.918 -0.886,-4.381 0.39,-1.478 1.678,-2.555 3.109,-3.014 1.442,-0.494 3.006,-0.472 4.472,-0.113 1.476,0.349 2.879,0.948 4.285,1.514 2.776,1.21 5.863,1.859 8.81,1.413 1.465,-0.216 2.911,-0.654 4.149,-1.453 1.239,-0.783 2.28,-1.877 2.931,-3.165 1.318,-2.597 1.222,-5.619 0.385,-8.197 C 63.055,23.146 61.491,20.923 59.823,18.958 53.034,11.15 45.249,5.616 37.789,2.213 34.063,0.483 30.4,-0.656 26.994,-1.503 23.584,-2.348 20.395,-2.818 17.513,-2.991 11.729,-3.349 7.263,-2.388 4.358,-1.557 2.902,-1.127 1.809,-0.741 1.089,-0.445 0.365,-0.159 0,0 0,0" /></g><g
           transform="translate(368.3903,106.5505)"
           id="g132"><path
             id="path134"
             style="fill:#1a2e35;fill-opacity:1;fill-rule:nonzero;stroke:none"
             d="m 0,0 c 3.298,9.873 7.812,20.395 12.91,31.237 1.284,2.705 2.554,5.379 3.805,8.014 1.255,2.627 2.499,5.233 3.873,7.706 2.728,4.96 5.729,9.521 8.713,13.761 2.982,4.242 5.968,8.16 8.786,11.802 2.827,3.638 5.525,6.979 8.115,9.919 5.163,5.903 9.882,10.161 13.24,12.952 1.678,1.402 3.014,2.446 3.93,3.142 0.441,0.33 0.785,0.59 1.046,0.784 0.237,0.174 0.362,0.259 0.368,0.251 0.007,-0.008 -0.105,-0.11 -0.331,-0.3 C 64.205,99.062 63.87,98.786 63.446,98.437 62.557,97.709 61.245,96.636 59.593,95.209 56.286,92.365 51.629,88.073 46.522,82.152 43.96,79.203 41.287,75.854 38.481,72.208 35.683,68.555 32.717,64.632 29.753,60.392 26.79,56.153 23.812,51.603 21.105,46.667 19.742,44.205 18.512,41.621 17.256,38.986 16.006,36.353 14.739,33.68 13.455,30.976 8.361,20.141 3.844,9.651 0.525,-0.181" /></g><g
           transform="translate(389.152,153.5251)"
           id="g136"><path
             id="path138"
             style="fill:#1a2e35;fill-opacity:1;fill-rule:nonzero;stroke:none"
             d="m 0,0 c -0.041,-0.005 -0.133,0.498 -0.267,1.413 -0.137,0.915 -0.292,2.243 -0.46,3.889 -0.337,3.288 -0.649,7.845 -0.973,12.871 -0.324,5.029 -0.699,9.568 -1.086,12.843 -0.19,1.637 -0.356,2.962 -0.483,3.875 -0.121,0.915 -0.169,1.424 -0.127,1.433 0.041,0.007 0.167,-0.488 0.359,-1.392 0.198,-0.904 0.43,-2.223 0.673,-3.859 0.498,-3.271 0.942,-7.825 1.266,-12.858 C -0.79,13.255 -0.513,8.768 -0.3,5.339 -0.194,3.791 -0.104,2.486 -0.032,1.438 0.027,0.518 0.042,0.005 0,0" /></g><g
           transform="translate(431.6901,159.7819)"
           id="g140"><path
             id="path142"
             style="fill:#1a2e35;fill-opacity:1;fill-rule:nonzero;stroke:none"
             d="M 0,0 C -0.001,-0.041 -0.604,-0.088 -1.692,-0.136 -2.78,-0.19 -4.354,-0.261 -6.295,-0.41 c -3.884,-0.268 -9.237,-0.825 -15.115,-1.699 -5.215,-0.786 -10.279,-1.713 -14.966,-2.765 -1.905,-0.413 -3.437,-0.789 -4.498,-1.043 -1.06,-0.257 -1.651,-0.381 -1.664,-0.34 -0.011,0.041 0.559,0.241 1.602,0.57 1.045,0.325 2.566,0.765 4.463,1.235 3.787,0.963 9.079,2.06 14.976,2.949 5.895,0.875 11.275,1.367 15.178,1.524 1.951,0.095 3.532,0.1 4.624,0.081 C -0.604,0.076 -0.001,0.043 0,0" /></g><g
           transform="translate(368.9391,107.3073)"
           id="g144"><path
             id="path146"
             style="fill:#1a2e35;fill-opacity:1;fill-rule:nonzero;stroke:none"
             d="m 0,0 c -0.02,-0.008 -0.111,0.174 -0.27,0.526 -0.179,0.421 -0.398,0.935 -0.663,1.556 -0.569,1.354 -1.342,3.334 -2.266,5.793 -1.85,4.917 -4.193,11.789 -6.674,19.407 -2.483,7.621 -4.759,14.507 -6.503,19.454 -0.856,2.407 -1.561,4.385 -2.084,5.857 -0.224,0.637 -0.407,1.164 -0.559,1.596 -0.121,0.367 -0.175,0.564 -0.155,0.573 0.02,0.007 0.112,-0.174 0.27,-0.528 0.178,-0.421 0.397,-0.933 0.663,-1.554 0.569,-1.354 1.343,-3.334 2.266,-5.793 1.85,-4.917 4.192,-11.789 6.675,-19.41 2.483,-7.62 5.752,-15.609 7.497,-20.558 C -0.946,4.515 -1.237,3.64 -0.714,2.17 -0.491,1.531 -0.307,1.004 -0.156,0.572 -0.035,0.205 0.02,0.008 0,0" /></g><g
           transform="translate(425.7584,123.2214)"
           id="g148"><path
             id="path150"
             style="fill:#1a2e35;fill-opacity:1;fill-rule:nonzero;stroke:none"
             d="M 0,0 C 0.005,-0.021 -0.19,-0.091 -0.565,-0.208 -1.01,-0.338 -1.556,-0.497 -2.217,-0.69 -3.74,-1.12 -5.799,-1.7 -8.302,-2.405 c -5.137,-1.449 -12.21,-3.532 -20.022,-5.845 -7.316,-2.165 -14.114,-4.125 -20.084,-5.676 -2.584,-0.673 -4.681,-1.195 -6.137,-1.526 -0.673,-0.15 -1.227,-0.273 -1.679,-0.373 -0.385,-0.078 -0.59,-0.11 -0.595,-0.089 -0.005,0.02 0.19,0.092 0.566,0.21 0.443,0.129 0.988,0.288 1.65,0.481 1.525,0.43 3.582,1.009 6.084,1.715 5.138,1.448 12.212,3.532 20.027,5.845 7.812,2.313 14.911,4.333 20.08,5.676 2.585,0.673 4.681,1.195 6.138,1.526 0.673,0.149 1.227,0.274 1.679,0.373 C -0.21,-0.01 -0.005,0.021 0,0" /></g></g></g><g
       id="g152"><g
         clip-path="url(#clipPath158)"
         id="g154"><g
           transform="translate(260.7828,337.5934)"
           id="g160"><path
             id="path162"
             style="fill:#ffbf9d;fill-opacity:1;fill-rule:nonzero;stroke:none"
             d="m 0,0 c 0,0 -0.581,2.781 -1.553,10.817 l -8.844,17.329 c 0,0 1.967,3.625 6.518,-4.053 2.074,-3.5 9.031,-2.034 7.875,3.459 -1.155,5.493 -8.275,7.963 -12.658,2.56 0,0 -2.833,-0.281 -3.161,1.925 -0.328,2.205 6.063,7.674 11.5,6.079 3.526,-1.035 6.023,-3.395 6.023,-3.395 0,0 -1.181,18.211 0.292,18.374 1.475,0.163 3.538,-0.951 4.656,-20.926 0,0 0.616,15.767 0.924,17.776 0.3,1.945 3.03,3.375 3.364,-1.68 0.037,-0.562 1.031,-16.054 1.031,-16.054 0,0 1.767,10.242 1.959,11.062 0.505,2.161 2.636,1.936 2.839,-0.929 0.154,-2.167 0.854,-11.426 0.854,-11.426 L 22.944,2.362 23.123,2.38" /></g><g
           transform="translate(289.0592,346.9621)"
           id="g164"><path
             id="path166"
             style="fill:#ff4f5b;fill-opacity:1;fill-rule:nonzero;stroke:none"
             d="m 0,0 -33.195,0.854 -3.308,-80.333 -37.528,16.571 -0.058,-0.136 c -2.258,1.008 -4.234,1.905 -5.284,2.477 -20.75,11.319 -34.371,12.691 -56.631,4.745 h -0.001 L -178.672,-72.9 c -8.253,-3.892 -29.752,-7.479 -37.119,-41.466 l -0.973,-4.056 34.087,-24.494 23.407,-61.692 28.043,-61.766 64.45,2.095 33.678,41.965 -28.579,54.593 -17.761,61.135 c 12.548,-8.327 35.842,-19.665 63.731,-13.752 C 14.501,-113.933 0,0 0,0" /></g><g
           id="g168"><g
             id="g170" /><g
             id="g182"><g
               style="opacity:0.30000299"
               id="g180"
               clip-path="url(#clipPath174)"><g
                 id="g178"
                 transform="translate(129.5719,142.9265)"><path
                   id="path176"
                   style="fill:#000000;fill-opacity:1;fill-rule:nonzero;stroke:none"
                   d="m 0,0 c 5.519,-3.356 10.214,-5.264 16.4,-7.123 3.137,-0.943 6.733,-1.629 9.523,0.087 2.79,1.716 3.221,6.81 0.11,7.834 9.015,2.034 18.03,4.068 27.044,6.102 -3.669,10.565 2.38,22.618 11.533,29.043 9.153,6.425 19.546,8.254 30.688,9.217 L 108.79,3.312 63.699,-58.188 26.776,-59.26 Z" /></g></g></g></g><g
           transform="translate(115.4196,200.735)"
           id="g184"><path
             id="path186"
             style="fill:#ff4f5b;fill-opacity:1;fill-rule:nonzero;stroke:none"
             d="m 0,0 c 0,0 -16.908,-36.98 -13.04,-55.438 2.161,-10.317 35.934,-19.131 57.448,-21.761 l -6.446,-36.116 c 0,0 -79.965,7.607 -94.951,39.28 -8.502,17.97 0.107,61.996 16.296,111.796 z" /></g><g
           transform="translate(192.4406,157.4108)"
           id="g188"><path
             id="path190"
             style="fill:#ffffff;fill-opacity:1;fill-rule:nonzero;stroke:none"
             d="m 0,0 c 0.007,-0.017 -0.19,-0.121 -0.574,-0.307 -0.436,-0.203 -0.996,-0.464 -1.69,-0.787 -1.469,-0.677 -3.617,-1.611 -6.288,-2.722 -5.342,-2.226 -12.819,-5.081 -21.228,-7.783 -8.416,-2.695 -16.158,-4.721 -21.798,-6.019 -2.819,-0.651 -5.11,-1.14 -6.699,-1.443 -0.752,-0.14 -1.359,-0.254 -1.831,-0.342 -0.42,-0.074 -0.642,-0.103 -0.646,-0.085 -0.003,0.017 0.212,0.082 0.624,0.187 0.467,0.114 1.067,0.258 1.81,0.439 1.575,0.363 3.851,0.907 6.656,1.602 5.611,1.388 13.324,3.466 21.725,6.156 8.395,2.698 15.877,5.494 21.248,7.628 2.687,1.067 4.854,1.949 6.347,2.569 0.709,0.286 1.282,0.516 1.727,0.696 C -0.219,-0.057 -0.007,0.017 0,0" /></g><g
           transform="translate(214.7106,285.1906)"
           id="g192"><path
             id="path194"
             style="fill:#ffffff;fill-opacity:1;fill-rule:nonzero;stroke:none"
             d="m 0,0 c 0.049,-0.135 -31.472,-11.563 -70.394,-25.521 -38.935,-13.963 -70.527,-25.168 -70.576,-25.033 -0.048,0.136 31.466,11.56 70.401,25.523 C -31.647,-11.073 -0.048,0.135 0,0" /></g><g
           transform="translate(107.2023,182.0261)"
           id="g196"><path
             id="path198"
             style="fill:#1a2e35;fill-opacity:1;fill-rule:nonzero;stroke:none"
             d="M 0,0 C -0.008,0.004 0.017,0.078 0.073,0.221 0.145,0.391 0.23,0.596 0.335,0.846 0.589,1.433 0.934,2.23 1.368,3.236 2.252,5.315 3.5,8.342 4.769,12.174 6.01,16.009 7.264,20.674 7.836,25.973 8.431,31.255 8.208,37.2 6.6,43.128 4.971,49.037 2.026,54.291 -1.741,58.034 c -3.757,3.764 -8.121,6.05 -11.953,7.209 -3.862,1.14 -7.178,1.225 -9.41,0.998 -0.553,-0.068 -1.049,-0.129 -1.486,-0.182 -0.43,-0.064 -0.786,-0.156 -1.078,-0.207 -0.267,-0.05 -0.485,-0.091 -0.666,-0.125 -0.151,-0.026 -0.229,-0.035 -0.231,-0.026 -0.003,0.009 0.071,0.035 0.218,0.077 0.178,0.048 0.393,0.106 0.655,0.176 0.29,0.068 0.646,0.178 1.075,0.257 0.439,0.068 0.936,0.145 1.491,0.231 2.246,0.291 5.607,0.264 9.536,-0.846 3.899,-1.129 8.348,-3.413 12.189,-7.222 C 2.451,54.584 5.452,49.253 7.103,43.267 8.731,37.262 8.939,31.247 8.313,25.921 7.71,20.578 6.409,15.894 5.118,12.058 3.799,8.224 2.497,5.211 1.553,3.154 1.078,2.126 0.701,1.333 0.431,0.802 0.307,0.56 0.206,0.361 0.122,0.198 0.049,0.063 0.008,-0.004 0,0" /></g><g
           transform="translate(187.5475,293.5217)"
           id="g200"><path
             id="path202"
             style="fill:#1a2e35;fill-opacity:1;fill-rule:nonzero;stroke:none"
             d="m 0,0 c 0.008,0.016 0.205,-0.071 0.575,-0.252 0.367,-0.182 0.902,-0.474 1.552,-0.909 1.307,-0.853 3.078,-2.318 4.823,-4.516 1.749,-2.19 3.417,-5.123 4.738,-8.576 1.35,-3.446 2.377,-7.376 3.476,-11.472 2.166,-8.181 4.125,-15.583 5.564,-21.02 0.675,-2.647 1.227,-4.812 1.628,-6.384 0.17,-0.713 0.309,-1.291 0.417,-1.744 0.09,-0.4 0.129,-0.612 0.111,-0.617 -0.017,-0.004 -0.09,0.199 -0.212,0.59 -0.133,0.446 -0.302,1.015 -0.512,1.718 -0.44,1.561 -1.047,3.712 -1.788,6.342 -1.477,5.426 -3.488,12.815 -5.711,20.981 -1.1,4.099 -2.109,8.013 -3.42,11.434 -1.285,3.429 -2.894,6.333 -4.582,8.522 C 4.976,-3.708 3.27,-2.223 2.012,-1.327 0.751,-0.427 -0.024,-0.044 0,0" /></g><g
           transform="translate(242.8507,272.0187)"
           id="g204"><path
             id="path206"
             style="fill:#ffffff;fill-opacity:1;fill-rule:nonzero;stroke:none"
             d="m 0,0 c 0,0 -0.147,-0.08 -0.444,-0.212 -0.319,-0.139 -0.759,-0.33 -1.325,-0.576 -1.19,-0.504 -2.908,-1.231 -5.111,-2.164 -4.442,-1.874 -10.888,-4.541 -18.87,-7.795 -15.961,-6.51 -38.098,-15.297 -62.707,-24.586 -24.62,-9.284 -47.047,-17.309 -63.332,-22.963 -8.142,-2.829 -14.742,-5.084 -19.315,-6.611 -2.269,-0.755 -4.04,-1.343 -5.266,-1.751 -0.588,-0.189 -1.044,-0.337 -1.374,-0.443 -0.311,-0.097 -0.474,-0.134 -0.474,-0.134 0,0 0.152,0.071 0.457,0.185 0.326,0.118 0.777,0.281 1.357,0.492 1.219,0.429 2.979,1.049 5.235,1.843 4.569,1.605 11.143,3.915 19.258,6.766 16.252,5.743 38.655,13.822 63.27,23.104 24.604,9.286 46.758,18.017 62.754,24.44 7.976,3.219 14.438,5.827 18.929,7.64 2.219,0.894 3.95,1.592 5.149,2.075 0.575,0.225 1.021,0.4 1.345,0.527 C -0.161,-0.047 0,0 0,0" /></g><g
           transform="translate(213.57,232.1306)"
           id="g208"><path
             id="path210"
             style="fill:#ffffff;fill-opacity:1;fill-rule:nonzero;stroke:none"
             d="m 0,0 c 0.003,-0.008 -0.126,-0.07 -0.382,-0.183 -0.28,-0.119 -0.658,-0.281 -1.141,-0.488 -1.033,-0.429 -2.513,-1.044 -4.407,-1.83 -3.829,-1.587 -9.393,-3.822 -16.292,-6.527 -13.794,-5.416 -32.97,-12.603 -54.365,-19.923 -21.406,-7.314 -40.97,-13.373 -55.192,-17.536 -7.111,-2.084 -12.879,-3.724 -16.877,-4.814 -1.979,-0.537 -3.525,-0.957 -4.604,-1.25 -0.509,-0.133 -0.907,-0.236 -1.201,-0.313 -0.271,-0.068 -0.412,-0.098 -0.414,-0.089 -0.002,0.009 0.133,0.056 0.4,0.14 0.29,0.089 0.683,0.209 1.187,0.363 1.072,0.315 2.61,0.766 4.577,1.345 3.981,1.148 9.732,2.841 16.827,4.97 14.192,4.253 33.73,10.365 55.129,17.676 21.387,7.318 40.575,14.447 54.4,19.773 6.914,2.662 12.498,4.844 16.349,6.373 1.91,0.748 3.402,1.332 4.444,1.74 0.491,0.186 0.876,0.332 1.16,0.44 C -0.14,-0.037 -0.003,0.009 0,0" /></g><g
           transform="translate(291.7535,266.7512)"
           id="g212"><path
             id="path214"
             style="fill:#ffffff;fill-opacity:1;fill-rule:nonzero;stroke:none"
             d="m 0,0 c 0.011,-0.014 -0.192,-0.187 -0.588,-0.501 -0.438,-0.342 -1.019,-0.793 -1.747,-1.359 -0.759,-0.59 -1.696,-1.3 -2.811,-2.088 -1.111,-0.793 -2.36,-1.72 -3.792,-2.671 -2.829,-1.954 -6.28,-4.16 -10.185,-6.486 -3.922,-2.298 -8.308,-4.701 -13.018,-7.016 -4.721,-2.294 -9.313,-4.277 -13.537,-5.959 -4.236,-1.652 -8.097,-3.018 -11.377,-4.049 -1.63,-0.546 -3.129,-0.961 -4.437,-1.35 -1.307,-0.395 -2.443,-0.698 -3.375,-0.935 -0.893,-0.225 -1.606,-0.406 -2.145,-0.543 -0.491,-0.119 -0.752,-0.172 -0.756,-0.155 -0.005,0.018 0.247,0.106 0.729,0.257 0.532,0.159 1.236,0.372 2.118,0.637 0.922,0.265 2.048,0.597 3.345,1.017 1.299,0.415 2.787,0.855 4.407,1.422 3.258,1.073 7.098,2.473 11.314,4.145 4.204,1.702 8.777,3.693 13.486,5.981 4.697,2.308 9.078,4.692 13.003,6.962 3.909,2.298 7.373,4.466 10.222,6.378 1.443,0.928 2.705,1.833 3.83,2.602 1.128,0.765 2.083,1.45 2.859,2.014 0.751,0.533 1.351,0.958 1.804,1.279 C -0.235,-0.13 -0.012,0.014 0,0" /></g><g
           transform="translate(293.3073,293.4255)"
           id="g216"><path
             id="path218"
             style="fill:#ffffff;fill-opacity:1;fill-rule:nonzero;stroke:none"
             d="m 0,0 c 0.052,-0.134 -9.127,-3.824 -20.499,-8.241 -11.377,-4.419 -20.639,-7.891 -20.69,-7.757 -0.052,0.134 9.125,3.823 20.502,8.242 C -9.315,-3.339 -0.052,0.134 0,0" /></g><g
           transform="translate(291.2926,318.3073)"
           id="g220"><path
             id="path222"
             style="fill:#ffffff;fill-opacity:1;fill-rule:nonzero;stroke:none"
             d="m 0,0 c 0.04,-0.138 -8.022,-2.544 -18.005,-5.374 -9.985,-2.83 -18.109,-5.012 -18.148,-4.874 -0.039,0.139 8.021,2.545 18.007,5.375 C -8.164,-2.043 -0.039,0.139 0,0" /></g><g
           transform="translate(289.526,342.6491)"
           id="g224"><path
             id="path226"
             style="fill:#ffffff;fill-opacity:1;fill-rule:nonzero;stroke:none"
             d="m 0,0 c 0.03,-0.141 -7.766,-1.973 -17.412,-4.093 -9.65,-2.121 -17.494,-3.725 -17.525,-3.585 -0.031,0.14 7.764,1.973 17.414,4.094 C -7.878,-1.465 -0.031,0.141 0,0" /></g><g
           transform="translate(219.8703,204.6022)"
           id="g228"><path
             id="path230"
             style="fill:#ffffff;fill-opacity:1;fill-rule:nonzero;stroke:none"
             d="m 0,0 c 0.053,-0.134 -22.197,-9.029 -49.689,-19.865 -27.502,-10.841 -49.832,-19.517 -49.885,-19.383 -0.053,0.134 22.192,9.027 49.694,19.867 C -22.388,-8.544 -0.052,0.134 0,0" /></g><g
           transform="translate(102.235,160.5749)"
           id="g232"><path
             id="path234"
             style="fill:#ffffff;fill-opacity:1;fill-rule:nonzero;stroke:none"
             d="m 0,0 c 0.006,-0.018 -0.151,-0.094 -0.456,-0.225 -0.362,-0.147 -0.805,-0.328 -1.341,-0.546 -1.169,-0.466 -2.87,-1.114 -4.981,-1.892 -4.221,-1.557 -10.089,-3.608 -16.63,-5.694 -6.543,-2.085 -12.516,-3.81 -16.859,-4.984 -2.171,-0.587 -3.933,-1.044 -5.156,-1.341 -0.564,-0.131 -1.03,-0.241 -1.41,-0.33 -0.325,-0.07 -0.497,-0.098 -0.501,-0.081 -0.005,0.018 0.158,0.079 0.473,0.183 0.374,0.114 0.831,0.255 1.385,0.425 1.283,0.376 3.009,0.882 5.109,1.499 4.315,1.263 10.265,3.042 16.801,5.125 6.534,2.084 12.415,4.078 16.664,5.545 2.069,0.713 3.771,1.299 5.034,1.735 0.551,0.182 1.005,0.332 1.376,0.455 C -0.176,-0.027 -0.006,0.017 0,0" /></g><g
           transform="translate(114.1037,135.2341)"
           id="g236"><path
             id="path238"
             style="fill:#ffffff;fill-opacity:1;fill-rule:nonzero;stroke:none"
             d="m 0,0 c 0.054,-0.133 -10.728,-4.637 -24.078,-10.057 -13.356,-5.422 -24.223,-9.709 -24.277,-9.576 -0.054,0.134 10.725,4.636 24.081,10.059 C -10.923,-4.153 -0.054,0.134 0,0" /></g><g
           transform="translate(133.7306,128.2282)"
           id="g240"><path
             id="path242"
             style="fill:#ffffff;fill-opacity:1;fill-rule:nonzero;stroke:none"
             d="m 0,0 c 0.109,-0.094 -5.937,-7.258 -13.502,-15.998 -7.568,-8.743 -13.789,-15.753 -13.897,-15.658 -0.109,0.094 5.936,7.256 13.503,15.999 C -6.331,-6.917 -0.109,0.094 0,0" /></g><g
           transform="translate(153.8009,123.1306)"
           id="g244"><path
             id="path246"
             style="fill:#ffffff;fill-opacity:1;fill-rule:nonzero;stroke:none"
             d="m 0,0 c 0.137,-0.046 -2.291,-7.669 -5.42,-17.024 -3.13,-9.359 -5.778,-16.906 -5.914,-16.86 -0.137,0.045 2.29,7.666 5.42,17.026 C -2.784,-7.504 -0.136,0.045 0,0" /></g><g
           transform="translate(284.9948,235.654)"
           id="g248"><path
             id="path250"
             style="fill:#ffffff;fill-opacity:1;fill-rule:nonzero;stroke:none"
             d="m 0,0 c 0.053,-0.134 -5.699,-2.512 -12.846,-5.31 -7.149,-2.798 -12.985,-4.958 -13.037,-4.824 -0.053,0.134 5.698,2.511 12.847,5.31 C -5.89,-2.026 -0.053,0.134 0,0" /></g><g
           id="g252"><g
             id="g254" /><g
             id="g266"><g
               style="opacity:0.30000299"
               id="g264"
               clip-path="url(#clipPath258)"><g
                 id="g262"
                 transform="translate(199.6461,277.4274)"><path
                   id="path260"
                   style="fill:#000000;fill-opacity:1;fill-rule:nonzero;stroke:none"
                   d="m 0,0 c 9.282,-25.127 25.975,-39.182 49.618,-51.773 0,0 -20.269,1.409 -38.982,14.286" /></g></g></g></g><g
           transform="translate(191.2428,76.9997)"
           id="g268"><path
             id="path270"
             style="fill:#375a64;fill-opacity:1;fill-rule:nonzero;stroke:none"
             d="m 0,0 h 178.132 v 76.104 c 0,14.255 -11.557,25.812 -25.813,25.812 H 25.812 C 11.557,101.916 0,90.359 0,76.104 Z" /></g><g
           transform="translate(251.7526,76.9997)"
           id="g272"><path
             id="path274"
             style="fill:#375a64;fill-opacity:1;fill-rule:nonzero;stroke:none"
             d="m 0,0 h -59.176 c -0.737,0 -1.334,0.598 -1.334,1.334 v 77.495 c 0,12.751 10.337,23.087 23.088,23.087 h 28.3 c 5.775,0 10.456,-4.681 10.456,-10.455 V 1.334 C 1.334,0.598 0.736,0 0,0" /></g><g
           transform="translate(204.381,76.9997)"
           id="g276"><path
             id="path278"
             style="fill:#1a2e35;fill-opacity:1;fill-rule:nonzero;stroke:none"
             d="m 0,0 v 76.214 c 0,14.195 11.507,25.702 25.703,25.702 H 7.374 c 0,0 -21.509,-2.858 -21.509,-29.78 C -14.135,45.214 -13.442,0 -13.442,0 Z" /></g><path
           id="path280"
           style="fill:#1a2e35;fill-opacity:1;fill-rule:nonzero;stroke:none"
           d="M 253.087,75.758 H 103.636 v 8.481 h 149.451 z" /><path
           id="path282"
           style="fill:#375a64;fill-opacity:1;fill-rule:nonzero;stroke:none"
           d="M 375.183,75.758 H 253.086 v 8.481 h 122.097 z" /><g
           transform="translate(253.0866,79.9997)"
           id="g284"><path
             id="path286"
             style="fill:#1a2e35;fill-opacity:1;fill-rule:nonzero;stroke:none"
             d="m 0,0 c -0.009,0 -0.018,0.103 -0.024,0.304 -0.005,0.23 -0.012,0.524 -0.02,0.892 -0.006,0.822 -0.015,1.97 -0.024,3.431 0.002,3.016 0.004,7.316 0.006,12.615 0.057,10.684 0.135,25.382 0.221,41.617 0.045,4.065 0.13,8.028 -0.114,11.84 -0.254,3.805 -0.804,7.47 -1.92,10.785 -1.076,3.327 -2.747,6.261 -4.768,8.612 -2.051,2.331 -4.391,4.103 -6.699,5.385 -4.654,2.565 -9.048,3.191 -11.986,3.211 -0.742,0.032 -1.4,-0.013 -1.969,-0.054 -0.573,-0.022 -1.053,-0.075 -1.439,-0.141 -0.365,-0.047 -0.656,-0.085 -0.883,-0.114 -0.2,-0.024 -0.303,-0.031 -0.305,-0.023 -0.002,0.009 0.098,0.035 0.295,0.075 0.226,0.043 0.515,0.097 0.878,0.167 0.385,0.082 0.866,0.152 1.44,0.19 0.573,0.058 1.235,0.119 1.983,0.104 2.963,0.04 7.419,-0.532 12.163,-3.092 2.353,-1.28 4.744,-3.062 6.848,-5.424 2.074,-2.384 3.793,-5.371 4.897,-8.743 C -0.273,78.272 0.291,74.565 0.554,70.732 0.808,66.893 0.725,62.913 0.681,58.851 0.534,42.616 0.402,27.919 0.307,17.236 0.234,11.938 0.176,7.639 0.134,4.624 0.103,3.163 0.078,2.015 0.061,1.194 0.047,0.827 0.037,0.533 0.028,0.303 0.019,0.103 0.009,0 0,0" /></g><g
           transform="translate(374.3483,84.4499)"
           id="g288"><path
             id="path290"
             style="fill:#1a2e35;fill-opacity:1;fill-rule:nonzero;stroke:none"
             d="m 0,0 c 0,-0.145 -27.814,-0.308 -62.118,-0.365 -34.316,-0.058 -62.124,0.011 -62.124,0.155 -10e-4,0.145 27.807,0.308 62.123,0.365 C -27.815,0.213 -0.001,0.144 0,0" /></g><g
           transform="translate(374.3463,75.4225)"
           id="g292"><path
             id="path294"
             style="fill:#1a2e35;fill-opacity:1;fill-rule:nonzero;stroke:none"
             d="m 0,0 c 0,-0.144 -27.613,-0.186 -61.668,-0.093 -34.066,0.093 -61.673,0.285 -61.673,0.429 0,0.143 27.608,0.185 61.674,0.093 C -27.612,0.336 0.001,0.144 0,0" /></g><g
           transform="translate(358.274,93.9186)"
           id="g296"><path
             id="path298"
             style="fill:#1a2e35;fill-opacity:1;fill-rule:nonzero;stroke:none"
             d="M 0,0 C -0.005,0.005 -0.01,0.128 -0.016,0.364 -0.02,0.62 -0.024,0.964 -0.032,1.409 -0.041,2.345 -0.054,3.693 -0.07,5.437 -0.09,8.955 -0.119,14.064 -0.156,20.521 L 0,20.363 c -18.091,-0.022 -47.183,-0.06 -79.938,-0.103 0.114,0.116 -0.264,-0.26 0.255,0.261 v -0.006 -0.01 -0.021 -0.042 -0.082 -0.165 -0.329 -0.658 l -10e-4,-1.313 V 15.28 c 0,-1.737 0,-3.463 -0.001,-5.175 C -79.686,6.682 -79.688,3.31 -79.688,0 l -0.255,0.255 C -57.164,0.209 -37.217,0.169 -22.94,0.14 -15.805,0.108 -10.088,0.084 -6.131,0.066 -4.172,0.052 -2.65,0.041 -1.595,0.033 -1.09,0.026 -0.699,0.021 -0.412,0.017 -0.145,0.011 0,0 0,0 c 0.006,-0.006 -0.123,-0.011 -0.38,-0.017 -0.279,-0.004 -0.659,-0.008 -1.15,-0.016 -1.043,-0.008 -2.546,-0.019 -4.482,-0.033 -3.942,-0.018 -9.639,-0.042 -16.751,-0.074 -14.32,-0.028 -34.33,-0.069 -57.18,-0.115 h -0.255 V 0 c -0.002,3.31 -0.003,6.682 -0.004,10.105 -0.001,1.712 -0.001,3.438 -0.001,5.175 0,0.868 -10e-4,1.74 -10e-4,2.615 v 1.313 0.658 0.329 0.165 0.082 0.042 0.021 0.01 0.006 c 0.521,0.52 0.147,0.144 0.266,0.26 C -47.183,20.738 -18.091,20.701 0,20.678 L 0.158,20.677 0.157,20.521 C 0.12,14.024 0.091,8.884 0.07,5.344 0.054,3.615 0.041,2.279 0.032,1.352 0.025,0.917 0.02,0.582 0.016,0.334 0.011,0.107 0.006,-0.005 0,0" /></g><g
           transform="translate(313.1295,109.155)"
           id="g300"><path
             id="path302"
             style="fill:#1a2e35;fill-opacity:1;fill-rule:nonzero;stroke:none"
             d="m 0,0 v -9.122 h -0.925 v 7.297 l -3.584,-6.137 h -0.456 l -3.583,6.098 V -9.122 H -9.474 V 0 h 0.795 L -4.717,-6.764 -0.795,0 Z" /></g><g
           transform="translate(321.4684,103.2516)"
           id="g304"><path
             id="path306"
             style="fill:#1a2e35;fill-opacity:1;fill-rule:nonzero;stroke:none"
             d="M 0,0 -2.189,4.899 -4.379,0 Z M 0.352,-0.782 H -4.73 l -1.095,-2.437 h -1.003 l 4.17,9.122 h 0.951 l 4.17,-9.122 H 1.446 Z" /></g><path
           id="path308"
           style="fill:#1a2e35;fill-opacity:1;fill-rule:nonzero;stroke:none"
           d="m 325.441,109.155 h 0.965 v -9.122 h -0.965 z" /><g
           transform="translate(329.3756,109.155)"
           id="g310"><path
             id="path312"
             style="fill:#1a2e35;fill-opacity:1;fill-rule:nonzero;stroke:none"
             d="M 0,0 H 0.965 V -8.288 H 6.072 V -9.122 H 0 Z" /></g><g
           transform="translate(347.983,199.7809)"
           id="g314"><path
             id="path316"
             style="fill:#ff4f5b;fill-opacity:1;fill-rule:nonzero;stroke:none"
             d="m 0,0 v 14.983 h -28.013 v -60.147 c -3.489,-2.068 -5.836,-5.861 -5.836,-10.212 0,-6.559 5.318,-11.876 11.876,-11.876 6.56,0 11.876,5.317 11.876,11.876 0,4.585 -2.602,8.557 -6.407,10.535 l 0,44.841 z" /></g><g
           transform="translate(330.9264,144.5954)"
           id="g318"><path
             id="path320"
             style="fill:#1a2e35;fill-opacity:1;fill-rule:nonzero;stroke:none"
             d="m 0,0 c 0,-2.532 -2.052,-4.585 -4.584,-4.585 -2.532,0 -4.585,2.053 -4.585,4.585 0,2.532 2.053,4.585 4.585,4.585 C -2.052,4.585 0,2.532 0,0" /></g><g
           transform="translate(154.2877,290.7219)"
           id="g322"><path
             id="path324"
             style="fill:#1a2e35;fill-opacity:1;fill-rule:nonzero;stroke:none"
             d="m 0,0 c 0.017,0.006 0.107,-0.205 0.264,-0.615 0.17,-0.406 0.367,-1.021 0.588,-1.826 0.432,-1.608 0.843,-4.023 0.679,-7.018 -0.182,-2.973 -0.943,-6.557 -2.906,-10.025 -1.933,-3.461 -5.177,-6.689 -9.352,-8.624 -4.154,-1.955 -8.743,-2.411 -12.618,-1.507 -3.9,0.869 -7.025,2.831 -9.254,4.807 -2.224,2.017 -3.61,4.041 -4.409,5.501 -0.397,0.735 -0.68,1.316 -0.837,1.727 -0.17,0.405 -0.251,0.62 -0.234,0.627 0.058,0.026 0.393,-0.835 1.246,-2.252 0.845,-1.416 2.26,-3.378 4.477,-5.326 2.223,-1.908 5.306,-3.794 9.113,-4.615 3.78,-0.855 8.242,-0.397 12.295,1.51 4.073,1.888 7.245,5.021 9.156,8.39 1.942,3.377 2.73,6.886 2.956,9.811 C 1.372,-6.489 1.023,-4.097 0.655,-2.49 0.291,-0.875 -0.06,-0.021 0,0" /></g><g
           transform="translate(239.4093,135.9186)"
           id="g326"><path
             id="path328"
             style="fill:#ececec;fill-opacity:1;fill-rule:nonzero;stroke:none"
             d="M 0,0 13.649,0.18 13.12,-46.188 0.448,-46.693 Z" /></g><g
           transform="translate(239.8576,89.2253)"
           id="g330"><path
             id="path332"
             style="fill:#1a2e35;fill-opacity:1;fill-rule:nonzero;stroke:none"
             d="m 0,0 c -0.105,0.098 2.604,3.194 6.053,6.916 3.449,3.724 6.33,6.661 6.436,6.563 C 12.594,13.382 9.884,10.285 6.435,6.562 2.987,2.841 0.105,-0.098 0,0" /></g><g
           transform="translate(253.0582,120.4831)"
           id="g334"><path
             id="path336"
             style="fill:#1a2e35;fill-opacity:1;fill-rule:nonzero;stroke:none"
             d="m 0,0 c -0.107,-0.096 -3.25,3.224 -7.018,7.413 -3.77,4.191 -6.738,7.666 -6.631,7.763 0.107,0.095 3.249,-3.223 7.018,-7.414 C -2.862,3.571 0.106,0.097 0,0" /></g><g
           transform="translate(137.151,339.3005)"
           id="g338"><path
             id="path340"
             style="fill:#1a2e35;fill-opacity:1;fill-rule:nonzero;stroke:none"
             d="m 0,0 c -0.003,-1.4 0.891,-2.761 2.177,-3.313 1.286,-0.553 2.889,-0.265 3.903,0.701 1.924,1.836 1.268,5.056 0.066,7.429 -1.202,2.372 -2.86,4.791 -2.507,7.427 0.27,2.017 1.673,3.666 2.611,5.472 1.635,3.145 1.828,7.071 0.245,10.242 -1.584,3.172 -4.998,5.424 -8.542,5.353 -3.619,-0.072 -7.422,-2.336 -10.634,-0.668 -2.328,1.208 -3.302,4.043 -5.325,5.713 -3.14,2.593 -7.868,1.73 -11.572,0.039 -3.704,-1.692 -7.263,-4.116 -11.33,-4.314 -3.397,-0.166 -6.655,1.26 -10.025,1.722 -7.303,1.003 -15.028,-3.059 -18.343,-9.643 -3.315,-6.585 -1.975,-15.21 3.18,-20.479 1.852,-1.893 4.236,-3.402 6.873,-3.644" /></g><g
           transform="translate(141.6759,262.8791)"
           id="g342"><path
             id="path344"
             style="fill:#ffbf9d;fill-opacity:1;fill-rule:nonzero;stroke:none"
             d="m 0,0 v 0 c -10.592,-3.488 -22.012,2.254 -25.538,12.833 -2.018,6.055 -3.705,11.157 -3.705,11.157 0,0 -16.106,-2.462 -21.143,12.827 -5.037,15.29 -13.021,49.319 -13.021,49.319 l -0.487,2.056 c 15.356,13.248 37.199,15.463 56.249,8.507 L -6.668,93.531 13.286,24.223 C 15.911,13.912 10.106,3.328 0,0" /></g><g
           transform="translate(91.7614,326.4631)"
           id="g346"><path
             id="path348"
             style="fill:#1a2e35;fill-opacity:1;fill-rule:nonzero;stroke:none"
             d="M 0,0 C 1.713,1.341 1.012,3.952 -1.159,4.246 -1.72,4.321 -2.309,4.157 -2.755,3.809 -4.472,2.469 -3.771,-0.146 -1.597,-0.438 -1.035,-0.514 -0.446,-0.349 0,0" /></g><g
           transform="translate(85.3707,328.382)"
           id="g350"><path
             id="path352"
             style="fill:#1a2e35;fill-opacity:1;fill-rule:nonzero;stroke:none"
             d="M 0,0 C 0.324,-0.19 1.465,1.446 3.576,2.124 5.677,2.833 7.566,2.194 7.714,2.539 7.79,2.696 7.399,3.1 6.568,3.397 5.751,3.696 4.47,3.828 3.157,3.395 1.845,2.963 0.892,2.096 0.412,1.371 -0.08,0.638 -0.154,0.081 0,0" /></g><g
           transform="translate(111.1749,335.0417)"
           id="g354"><path
             id="path356"
             style="fill:#1a2e35;fill-opacity:1;fill-rule:nonzero;stroke:none"
             d="M 0,0 C -0.845,-0.976 -0.739,-2.452 0.237,-3.297 1.213,-4.142 2.689,-4.036 3.534,-3.06 4.379,-2.083 4.273,-0.607 3.297,0.237 2.321,1.083 0.845,0.976 0,0" /></g><g
           transform="translate(108.3678,333.527)"
           id="g358"><path
             id="path360"
             style="fill:#1a2e35;fill-opacity:1;fill-rule:nonzero;stroke:none"
             d="M 0,0 C 0.325,-0.19 1.466,1.446 3.576,2.124 5.677,2.833 7.566,2.194 7.714,2.54 7.791,2.696 7.399,3.1 6.569,3.397 5.752,3.696 4.47,3.828 3.157,3.396 1.845,2.963 0.892,2.096 0.412,1.371 -0.079,0.638 -0.153,0.081 0,0" /></g><g
           transform="translate(105.3996,313.4094)"
           id="g362"><path
             id="path364"
             style="fill:#1a2e35;fill-opacity:1;fill-rule:nonzero;stroke:none"
             d="m 0,0 c -0.036,0.161 -1.425,0.004 -3.642,-0.379 -0.568,-0.116 -1.058,-0.136 -1.209,0.165 -0.214,0.318 -0.184,0.981 -0.112,1.728 0.1,1.561 0.204,3.153 0.312,4.823 0.377,6.85 0.416,12.415 0.087,12.433 -0.328,0.018 -0.9,-5.518 -1.276,-12.368 -0.076,-1.671 -0.148,-3.265 -0.219,-4.828 -0.003,-0.705 -0.149,-1.567 0.414,-2.375 0.291,-0.401 0.819,-0.591 1.209,-0.573 0.397,0.005 0.707,0.102 0.977,0.173 C -1.289,-0.608 0.035,-0.161 0,0" /></g><g
           transform="translate(113.005,313.2433)"
           id="g366"><path
             id="path368"
             style="fill:#ffffff;fill-opacity:1;fill-rule:nonzero;stroke:none"
             d="m 0,0 c 1.789,2.007 -5.047,-5.138 -9.416,-6.287 0,0 3.714,-3.165 7.628,-0.148 C 2.275,-3.303 0,0 0,0" /></g><g
           transform="translate(112.338,287.0827)"
           id="g370"><path
             id="path372"
             style="fill:#ff9a6c;fill-opacity:1;fill-rule:nonzero;stroke:none"
             d="m 0,0 c 0,0 9.95,2.274 18.214,12.006 0,0 -1.241,-12.54 -16.993,-15.994 z" /></g><g
           transform="translate(137.2716,345.9348)"
           id="g374"><path
             id="path376"
             style="fill:#ffbf9d;fill-opacity:1;fill-rule:nonzero;stroke:none"
             d="M 0,0 C 0.306,0.211 11.169,4.47 13.415,-9.052 15.659,-22.574 1.259,-20.369 1.172,-19.985 1.084,-19.601 0,0 0,0" /></g><g
           transform="translate(141.7985,331.3825)"
           id="g378"><path
             id="path380"
             style="fill:#ff9a6c;fill-opacity:1;fill-rule:nonzero;stroke:none"
             d="M 0,0 C 0.052,0.053 0.263,-0.126 0.692,-0.242 1.109,-0.355 1.797,-0.367 2.458,0.014 3.8,0.775 4.626,3.243 4.287,5.691 4.118,6.928 3.665,8.057 3.068,8.955 2.491,9.875 1.736,10.46 0.996,10.469 0.253,10.515 -0.185,10 -0.287,9.592 -0.405,9.184 -0.275,8.928 -0.343,8.893 -0.375,8.853 -0.67,9.071 -0.655,9.648 c 0.012,0.278 0.118,0.623 0.392,0.935 0.281,0.318 0.736,0.532 1.246,0.561 C 2.037,11.245 3.135,10.441 3.792,9.456 4.506,8.475 5.043,7.211 5.233,5.822 5.6,3.083 4.628,0.302 2.767,-0.587 1.857,-0.993 1.016,-0.838 0.553,-0.587 0.079,-0.323 -0.043,-0.032 0,0" /></g><g
           transform="translate(76.526,341.59)"
           id="g382"><path
             id="path384"
             style="fill:#1a2e35;fill-opacity:1;fill-rule:nonzero;stroke:none"
             d="m 0,0 c 0,0 10.616,-1.907 21.081,7.574 6.867,6.221 15.627,10.774 18.128,9.744 2.501,-1.03 5.239,-9.135 13.82,-9.321 0,0 3.854,-15.847 9.955,-13.535 6.1,2.313 -4.62,25.526 -4.62,25.526 L 41.149,26.297 23.56,24.773 5.705,17.561 -2.993,8.276 Z" /></g><g
           transform="translate(132.3292,375.0295)"
           id="g386"><path
             id="path388"
             style="fill:#1a2e35;fill-opacity:1;fill-rule:nonzero;stroke:none"
             d="m 0,0 c 0.031,-0.155 -1.66,-0.409 -3.262,-1.649 -1.626,-1.211 -2.323,-2.771 -2.464,-2.7 -0.134,0.015 0.394,1.799 2.149,3.115 C -1.839,0.103 0.021,0.133 0,0" /></g><g
           transform="translate(124.1598,379.3932)"
           id="g390"><path
             id="path392"
             style="fill:#1a2e35;fill-opacity:1;fill-rule:nonzero;stroke:none"
             d="M 0,0 C 0.063,0.026 0.353,-0.469 0.718,-1.323 1.079,-2.175 1.511,-3.399 1.715,-4.819 1.936,-6.237 1.82,-7.555 1.623,-8.467 1.416,-9.383 1.159,-9.905 1.102,-9.886 0.943,-9.848 1.64,-7.639 1.2,-4.894 0.777,-2.167 -0.174,-0.064 0,0" /></g><g
           transform="translate(165.2628,136.6257)"
           id="g394"><path
             id="path396"
             style="fill:#e1e1e1;fill-opacity:1;fill-rule:nonzero;stroke:none"
             d="M 0,0 69.251,12.877 79.596,-33.921 7.678,-46.068 Z" /></g><g
           transform="translate(234.5138,149.5026)"
           id="g398"><path
             id="path400"
             style="fill:#1a2e35;fill-opacity:1;fill-rule:nonzero;stroke:none"
             d="m 0,0 c 0.007,-0.005 -0.034,-0.071 -0.12,-0.195 -0.105,-0.148 -0.234,-0.326 -0.39,-0.544 -0.379,-0.505 -0.893,-1.193 -1.543,-2.061 -1.386,-1.813 -3.346,-4.377 -5.761,-7.536 -4.935,-6.375 -11.723,-15.143 -19.267,-24.888 l -0.133,-0.172 -0.194,0.102 c -0.424,0.225 -0.882,0.467 -1.342,0.709 -11.188,5.949 -21.313,11.333 -28.69,15.255 -3.629,1.958 -6.579,3.55 -8.666,4.676 -0.988,0.545 -1.77,0.977 -2.344,1.294 -0.242,0.14 -0.441,0.255 -0.604,0.348 -0.134,0.081 -0.201,0.126 -0.197,0.135 0.004,0.008 0.08,-0.022 0.222,-0.088 0.17,-0.081 0.376,-0.181 0.628,-0.303 0.585,-0.295 1.382,-0.698 2.389,-1.208 2.107,-1.09 5.083,-2.632 8.744,-4.529 7.395,-3.888 17.546,-9.224 28.762,-15.119 0.46,-0.243 0.917,-0.485 1.341,-0.709 l -0.327,-0.07 c 7.594,9.706 14.425,18.44 19.392,24.79 2.469,3.116 4.473,5.646 5.891,7.435 0.681,0.844 1.221,1.511 1.618,2.002 0.173,0.205 0.314,0.373 0.43,0.512 C -0.062,-0.05 -0.007,0.006 0,0" /></g><g
           transform="translate(172.9406,90.5573)"
           id="g402"><path
             id="path404"
             style="fill:#1a2e35;fill-opacity:1;fill-rule:nonzero;stroke:none"
             d="m 0,0 c -0.121,0.079 4.333,7.141 9.946,15.771 5.616,8.634 10.264,15.568 10.385,15.49 0.12,-0.079 -4.333,-7.139 -9.948,-15.774 C 4.77,6.856 0.121,-0.078 0,0" /></g><g
           transform="translate(244.859,102.7048)"
           id="g406"><path
             id="path408"
             style="fill:#1a2e35;fill-opacity:1;fill-rule:nonzero;stroke:none"
             d="m 0,0 c -0.089,-0.113 -6.566,4.846 -14.466,11.074 -7.903,6.232 -14.234,11.372 -14.145,11.486 0.089,0.112 6.565,-4.846 14.467,-11.077 C -6.244,5.255 0.089,0.112 0,0" /></g><g
           transform="translate(167.0807,126.1794)"
           id="g410"><path
             id="path412"
             style="fill:#ffbf9d;fill-opacity:1;fill-rule:nonzero;stroke:none"
             d="m 0,0 c 0,0 0.492,-9.064 4.856,-8.963 4.363,0.102 19.789,8.493 21.581,5.576 1.792,-2.917 -2.942,-6.967 -2.942,-6.967 0,0 5.435,0.082 3.414,-3.169 -2.021,-3.251 -8.066,-18.464 -13.657,-19.893 -8.042,-2.054 -26.531,-2.857 -26.531,-2.857 l 5.712,31.872 z" /></g><g
           transform="translate(192.2575,117.7224)"
           id="g414"><path
             id="path416"
             style="fill:#ff9a6c;fill-opacity:1;fill-rule:nonzero;stroke:none"
             d="m 0,0 c 0.024,-0.026 -0.184,-0.256 -0.582,-0.649 -0.396,-0.396 -0.995,-0.94 -1.757,-1.587 -1.523,-1.295 -3.74,-2.963 -6.358,-4.541 -2.621,-1.576 -5.132,-2.754 -6.99,-3.494 -0.928,-0.372 -1.689,-0.646 -2.225,-0.811 -0.533,-0.167 -0.833,-0.244 -0.845,-0.21 -0.028,0.076 1.116,0.536 2.925,1.359 1.809,0.822 4.27,2.041 6.867,3.601 2.593,1.564 4.822,3.169 6.395,4.383 C -0.997,-0.736 -0.054,0.06 0,0" /></g><g
           transform="translate(192.0172,108.7419)"
           id="g418"><path
             id="path420"
             style="fill:#ff9a6c;fill-opacity:1;fill-rule:nonzero;stroke:none"
             d="m 0,0 c 0.048,-0.033 -0.488,-0.958 -1.59,-2.284 -1.097,-1.326 -2.806,-3.018 -4.974,-4.522 -2.173,-1.498 -4.359,-2.502 -5.987,-3.06 -1.63,-0.563 -2.684,-0.738 -2.698,-0.682 -0.022,0.083 0.994,0.384 2.567,1.027 1.574,0.638 3.689,1.673 5.821,3.144 2.127,1.476 3.842,3.089 4.995,4.336 C -0.709,-0.795 -0.069,0.05 0,0" /></g></g></g></g></svg>