<?xml version="1.0" standalone="no"?>
<!DOCTYPE svg PUBLIC "-//W3C//DTD SVG 20010904//EN"
 "http://www.w3.org/TR/2001/REC-SVG-20010904/DTD/svg10.dtd">
<svg version="1.0" xmlns="http://www.w3.org/2000/svg"
 width="2000.000000pt" height="2000.000000pt" viewBox="0 0 2000.000000 2000.000000"
 preserveAspectRatio="xMidYMid meet">

<g transform="translate(0.000000,2000.000000) scale(0.100000,-0.100000)"
fill="#000000" stroke="none">
<path d="M8075 15703 c-168 -36 -322 -120 -447 -245 -43 -43 -78 -83 -78 -89
0 -5 93 -391 206 -857 113 -466 216 -890 228 -943 l23 -97 -36 15 c-127 53
-330 172 -469 275 -381 282 -612 622 -676 997 -9 52 -18 96 -20 98 -6 7 -160
-131 -282 -252 -135 -135 -209 -220 -297 -347 l-67 -97 -45 31 c-35 25 -58 33
-105 36 -95 7 -132 -13 -305 -164 -166 -145 -186 -172 -193 -266 -5 -72 15
-117 163 -364 243 -404 581 -891 904 -1299 215 -273 300 -371 336 -388 43 -20
114 -22 158 -3 44 18 94 77 107 126 l11 40 193 -257 c574 -766 1158 -1439
1793 -2063 437 -431 986 -915 1173 -1036 329 -212 1144 -494 2179 -753 406
-102 746 -177 1004 -221 234 -40 237 -40 280 10 44 52 134 214 164 297 55 153
68 428 28 589 l-18 71 -106 38 c-1041 369 -1773 791 -1936 1117 -62 124 -44
230 47 286 115 70 345 69 557 -3 39 -13 70 -21 67 -17 -5 9 -432 922 -462 989
l-24 53 -37 -19 c-24 -12 -132 -34 -298 -60 -635 -100 -575 -87 -620 -131 -51
-49 -100 -70 -167 -70 -91 1 -167 49 -210 134 -30 59 -23 168 15 224 44 67 97
96 183 100 64 4 79 1 120 -22 l47 -26 156 25 c86 13 273 43 416 65 143 23 262
43 264 46 3 2 -7 30 -22 62 -19 42 -27 79 -31 140 -2 46 -6 85 -8 87 -2 2 -99
-1 -216 -6 -116 -5 -307 -13 -423 -18 -206 -9 -212 -10 -238 -35 -39 -37 -99
-59 -162 -58 -167 1 -276 175 -205 328 60 129 213 172 338 95 l52 -33 290 11
c160 6 348 14 419 17 l127 7 -1 36 c0 20 -6 99 -12 176 l-12 140 -438 -3 -438
-3 -40 -28 c-118 -86 -279 -49 -343 80 -80 162 32 340 215 339 50 0 115 -27
143 -59 19 -21 22 -21 443 -21 l423 0 0 28 c0 16 -11 121 -25 233 -107 863
-249 1357 -417 1445 -15 8 -55 14 -90 14 -213 0 -410 -249 -563 -713 -30 -91
-55 -173 -55 -181 0 -44 -150 -127 -263 -147 -198 -33 -428 31 -745 207 -524
290 -872 579 -1006 834 -49 94 -70 172 -69 265 1 99 34 197 163 489 127 286
142 364 91 464 -53 105 -220 199 -419 238 -94 18 -297 17 -387 -3z m1322
-3229 l52 -7 31 -96 c41 -128 117 -284 197 -406 90 -136 291 -336 430 -429 82
-54 103 -73 108 -97 8 -35 -8 -59 -39 -59 -26 0 -186 94 -286 169 -188 140
-352 334 -458 540 -64 123 -132 304 -132 350 0 44 5 46 97 35z"/>
<path d="M5113 13476 c-21 -10 -44 -36 -73 -85 -42 -71 -100 -218 -100 -256 0
-11 -20 -52 -45 -90 -107 -167 -121 -302 -45 -461 108 -224 754 -1089 1244
-1664 63 -74 96 -105 110 -104 12 0 56 8 98 17 117 26 245 18 342 -19 11 -4
-42 64 -116 152 -383 453 -795 991 -1148 1499 -158 228 -190 282 -221 373 -52
152 -24 332 75 478 45 66 29 131 -40 160 -40 17 -41 17 -81 0z"/>
<path d="M7063 10334 c26 -131 14 -244 -39 -376 -35 -87 -35 -88 -18 -124 18
-37 63 -77 103 -89 62 -19 148 0 181 40 12 14 21 8 85 -55 l72 -72 -33 -50
c-56 -83 -46 -181 25 -241 70 -58 159 -59 233 -3 l43 33 70 -63 c54 -48 68
-66 60 -77 -5 -8 -19 -26 -29 -42 -11 -15 -21 -50 -24 -79 -13 -161 162 -250
294 -150 l45 35 79 -69 78 -69 -36 -52 c-66 -95 -51 -209 36 -265 92 -60 196
-35 264 63 l16 23 101 -81 c56 -45 101 -85 101 -89 0 -4 -11 -23 -24 -43 -72
-106 -46 -228 60 -279 35 -17 57 -21 95 -18 57 6 90 27 135 85 l31 40 64 -45
c35 -25 78 -56 96 -69 l32 -23 -31 -66 c-37 -80 -34 -136 11 -200 l29 -42 -37
-36 -36 -37 30 -25 c54 -44 168 -93 290 -125 133 -35 186 -58 209 -91 22 -31
20 -98 -5 -186 -33 -119 -13 -163 86 -191 124 -34 796 -47 2608 -49 l1288 -2
30 29 c31 31 39 83 19 122 -22 40 -57 46 -310 58 -897 42 -1633 134 -2535 317
-546 111 -693 164 -1046 380 -556 340 -1135 779 -1729 1312 -178 159 -802 775
-985 971 -74 81 -87 90 -82 65z"/>
<path d="M4962 9757 c-119 -44 -176 -181 -121 -294 66 -137 234 -163 340 -53
86 88 86 202 0 290 -63 66 -139 85 -219 57z"/>
<path d="M8726 7674 c-72 -23 -150 -104 -172 -179 -50 -174 73 -344 250 -345
81 0 129 17 183 64 93 82 121 216 67 324 -59 118 -200 177 -328 136z"/>
<path d="M3295 6250 c-265 -38 -477 -216 -551 -465 -25 -83 -25 -267 0 -350
32 -106 85 -195 166 -276 138 -139 325 -207 540 -196 58 3 132 13 165 22 74
20 188 76 235 115 l35 29 -116 116 -115 116 -51 -34 c-65 -44 -135 -61 -227
-55 -89 6 -158 39 -215 104 -108 123 -107 349 4 472 63 70 126 96 235 96 98 0
144 -13 204 -59 l43 -33 118 118 118 118 -44 32 c-145 105 -359 157 -544 130z"/>
<path d="M5668 6250 c-244 -41 -440 -206 -514 -433 -24 -71 -27 -99 -28 -207
0 -111 3 -134 28 -205 62 -179 170 -299 341 -381 93 -45 187 -64 316 -64 202
0 348 58 485 195 127 127 184 265 184 450 0 116 -20 205 -66 299 -84 174 -259
303 -461 342 -80 15 -208 17 -285 4z m258 -321 c73 -27 126 -76 161 -147 26
-52 28 -66 28 -172 0 -140 -20 -196 -96 -264 -63 -56 -121 -76 -223 -76 -69 0
-90 4 -141 29 -73 35 -105 68 -142 146 -25 54 -28 71 -28 166 0 102 1 109 35
174 20 39 51 81 72 98 83 66 226 86 334 46z"/>
<path d="M6965 6249 c-120 -18 -207 -60 -269 -130 -139 -153 -121 -415 37
-531 57 -41 135 -79 242 -118 143 -52 184 -76 201 -116 14 -32 13 -38 -1 -61
-57 -86 -249 -65 -397 43 l-50 37 -109 -109 -110 -109 48 -42 c60 -53 159
-106 238 -127 92 -25 264 -31 368 -13 229 40 355 165 365 361 10 196 -82 323
-295 404 -43 16 -111 42 -151 57 -91 34 -132 67 -132 105 0 102 195 101 324
-2 l38 -31 110 109 109 109 -42 38 c-111 99 -342 155 -524 126z"/>
<path d="M8005 6249 c-120 -18 -207 -60 -269 -130 -139 -153 -121 -415 37
-531 57 -41 135 -79 242 -118 143 -52 184 -76 201 -116 14 -32 13 -38 -1 -61
-57 -86 -249 -65 -397 43 l-50 37 -109 -109 -110 -109 48 -42 c60 -53 159
-106 238 -127 92 -25 264 -31 368 -13 229 40 355 165 365 361 10 196 -82 323
-295 404 -43 16 -111 42 -151 57 -91 34 -132 67 -132 105 0 102 195 101 324
-2 l38 -31 110 109 109 109 -42 38 c-111 99 -342 155 -524 126z"/>
<path d="M10392 6250 c-260 -47 -463 -228 -528 -471 -20 -78 -23 -242 -5 -319
7 -30 31 -93 53 -140 32 -67 57 -101 117 -161 86 -85 150 -125 266 -165 73
-26 93 -28 225 -29 124 0 156 3 220 23 280 87 460 331 460 622 0 300 -194 550
-485 625 -74 20 -252 27 -323 15z m245 -315 c142 -42 231 -211 203 -386 -27
-181 -139 -282 -310 -283 -93 0 -146 15 -202 57 -95 72 -135 175 -125 322 10
154 84 255 217 296 43 13 164 10 217 -6z"/>
<path d="M9195 6240 c-132 -28 -280 -113 -365 -208 -57 -64 -122 -190 -141
-272 -20 -87 -15 -252 11 -335 62 -200 225 -365 418 -425 199 -62 395 -50 567
35 50 25 104 56 120 70 l30 25 -117 117 -117 117 -23 -21 c-51 -46 -109 -67
-203 -71 -74 -3 -100 0 -147 17 -71 27 -132 85 -166 159 -24 50 -27 69 -27
162 0 93 3 111 26 160 34 70 80 116 149 149 47 22 69 26 145 26 98 0 165 -22
215 -70 l26 -25 118 119 118 118 -76 51 c-118 79 -208 104 -381 108 -77 2
-158 -1 -180 -6z"/>
<path d="M4016 6232 c-3 -5 -5 -288 -3 -628 l2 -619 177 -3 178 -2 2 249 3
250 159 -249 158 -250 200 0 199 0 -19 28 c-10 15 -90 128 -176 251 -165 235
-175 251 -156 251 28 0 124 57 167 99 25 25 58 71 72 101 22 47 26 69 26 150
0 76 -4 104 -22 142 -46 101 -125 169 -243 209 -61 21 -85 23 -391 27 -205 2
-329 0 -333 -6z m584 -267 c81 -42 79 -179 -3 -221 -21 -11 -66 -19 -129 -22
l-98 -5 0 132 0 131 100 0 c71 0 110 -5 130 -15z"/>
<path d="M11332 5808 c4 -400 5 -427 26 -488 54 -163 174 -282 337 -333 92
-28 270 -30 360 -3 177 53 301 176 353 350 12 41 16 131 19 474 l5 422 -176 0
-176 0 0 -397 c0 -243 -4 -412 -10 -435 -24 -86 -103 -134 -209 -126 -42 3
-71 12 -100 31 -77 51 -76 40 -79 510 l-3 417 -175 0 -176 0 4 -422z"/>
<path d="M12620 5605 l0 -625 170 0 170 0 0 320 c0 176 3 320 8 320 4 -1 121
-145 260 -320 l254 -320 129 0 129 0 0 625 0 625 -175 0 -175 0 0 -331 0 -330
-262 330 -263 331 -122 0 -123 0 0 -625z"/>
<path d="M13880 6085 l0 -145 190 0 190 0 0 -480 0 -480 170 0 170 0 2 478 3
477 188 3 187 2 0 145 0 145 -550 0 -550 0 0 -145z"/>
<path d="M15120 5605 l0 -625 170 0 170 0 0 250 c0 138 4 250 8 250 4 0 80
-112 167 -250 l160 -250 198 0 199 0 -35 48 c-94 129 -327 465 -327 471 0 4
26 18 58 31 38 16 77 44 119 85 53 54 64 71 84 134 38 126 13 252 -68 341 -53
59 -111 95 -194 121 -54 17 -96 19 -385 19 l-324 0 0 -625z m577 362 c47 -25
63 -54 63 -115 0 -48 -4 -58 -33 -87 -38 -38 -82 -48 -192 -43 l-70 3 -3 119
c-1 66 0 126 3 134 8 21 187 12 232 -11z"/>
<path d="M16150 6225 c0 -3 97 -172 215 -376 l215 -370 0 -249 0 -250 170 0
170 0 0 250 c0 213 2 256 16 283 9 18 101 176 204 352 103 176 192 330 199
343 l12 22 -195 0 -194 0 -102 -190 c-56 -105 -105 -188 -110 -185 -4 3 -52
88 -106 190 l-99 185 -197 0 c-109 0 -198 -2 -198 -5z"/>
<path d="M5718 4558 c126 -207 122 -196 122 -285 l0 -83 35 0 35 0 0 83 c0 89
-4 78 122 285 l20 32 -34 0 c-33 0 -37 -4 -87 -95 -29 -52 -54 -95 -56 -95 -1
0 -27 43 -56 95 -50 91 -53 95 -86 95 l-35 0 20 -32z"/>
<path d="M6258 4580 c-80 -24 -129 -96 -129 -189 -1 -93 41 -159 118 -187 135
-48 273 46 273 186 0 134 -131 229 -262 190z m146 -70 c40 -35 58 -96 46 -157
-13 -73 -58 -113 -127 -113 -83 0 -133 57 -133 150 0 95 50 150 137 150 33 0
50 -7 77 -30z"/>
<path d="M6662 4448 c2 -121 6 -148 23 -177 45 -76 134 -101 215 -59 70 36 80
65 80 236 l0 142 -30 0 -30 0 0 -141 0 -141 -29 -29 c-57 -57 -149 -28 -165
52 -3 18 -6 83 -6 145 l0 114 -31 0 -31 0 4 -142z"/>
<path d="M7150 4390 l0 -200 30 0 30 0 0 80 0 80 28 0 c23 0 36 -13 82 -77 47
-67 60 -78 88 -81 17 -2 32 0 32 3 0 4 -27 44 -59 90 -59 82 -59 83 -35 89 56
14 83 119 44 169 -26 33 -75 47 -167 47 l-73 0 0 -200z m180 130 c50 -50 6
-120 -76 -120 l-44 0 0 70 0 70 50 0 c37 0 55 -5 70 -20z"/>
<path d="M7720 4565 c0 -24 3 -25 60 -25 l60 0 0 -175 0 -175 30 0 30 0 0 175
0 175 65 0 c63 0 65 1 65 25 l0 25 -155 0 -155 0 0 -25z"/>
<path d="M8226 4582 c-3 -5 -30 -72 -60 -148 -30 -77 -63 -163 -75 -191 l-21
-53 31 0 c27 0 32 6 51 50 l21 50 88 0 87 0 13 -37 c16 -52 27 -63 59 -63 l28
0 -78 198 c-76 191 -79 197 -108 200 -17 2 -33 -1 -36 -6z m70 -157 l32 -85
-68 0 -69 0 32 89 c17 49 34 87 36 85 3 -3 19 -43 37 -89z"/>
<path d="M8670 4578 c-85 -24 -131 -90 -131 -189 -1 -123 75 -195 206 -193 46
0 81 6 103 17 l32 18 0 79 0 80 -60 0 c-57 0 -60 -1 -60 -25 0 -22 4 -25 35
-25 34 0 35 -1 35 -40 0 -34 -4 -42 -26 -50 -69 -26 -150 -3 -184 53 -24 39
-27 125 -5 168 34 64 125 88 201 52 34 -17 36 -17 50 1 12 17 11 21 -4 32 -44
31 -128 41 -192 22z"/>
<path d="M9030 4390 l0 -200 110 0 110 0 0 25 c0 25 -1 25 -80 25 l-80 0 0
175 0 175 -30 0 -30 0 0 -200z"/>
<path d="M9380 4390 l0 -200 30 0 30 0 0 200 0 200 -30 0 -30 0 0 -200z"/>
<path d="M9610 4390 l0 -200 25 0 24 0 3 145 3 144 110 -142 c74 -95 118 -143
133 -145 l22 -3 0 200 0 201 -25 0 -25 0 0 -146 0 -146 -112 145 c-85 111
-119 146 -135 147 l-23 0 0 -200z"/>
<path d="M10110 4390 l0 -200 120 0 120 0 0 25 c0 25 -1 25 -90 25 l-90 0 0
65 0 65 75 0 c73 0 75 1 75 25 0 24 -2 25 -75 25 l-75 0 0 60 0 60 90 0 c89 0
90 0 90 25 l0 25 -120 0 -120 0 0 -200z"/>
<path d="M10810 4578 c-85 -24 -131 -90 -131 -189 -1 -123 75 -195 206 -193
46 0 81 6 103 17 l32 18 0 79 0 80 -60 0 c-57 0 -60 -1 -60 -25 0 -22 4 -25
35 -25 34 0 35 -1 35 -40 0 -34 -4 -42 -26 -50 -69 -26 -150 -3 -184 53 -24
39 -27 125 -5 168 34 64 125 88 201 52 34 -17 36 -17 50 1 12 17 11 21 -4 32
-44 31 -128 41 -192 22z"/>
<path d="M11278 4580 c-80 -24 -129 -96 -129 -189 -1 -93 41 -159 118 -187
135 -48 273 46 273 186 0 134 -131 229 -262 190z m146 -70 c40 -35 58 -96 46
-157 -13 -73 -58 -113 -127 -113 -83 0 -133 57 -133 150 0 95 50 150 137 150
33 0 50 -7 77 -30z"/>
<path d="M11690 4390 l0 -200 120 0 120 0 0 25 c0 25 -1 25 -90 25 l-90 0 0
65 0 65 75 0 c73 0 75 1 75 25 0 24 -2 25 -75 25 l-75 0 0 60 0 60 90 0 c89 0
90 0 90 25 l0 25 -120 0 -120 0 0 -200z"/>
<path d="M12144 4584 c-32 -7 -74 -57 -80 -95 -8 -57 22 -93 100 -119 86 -28
109 -67 66 -110 -26 -26 -70 -26 -120 0 l-39 20 -12 -22 c-14 -26 4 -43 65
-59 83 -22 152 9 174 79 12 37 12 46 -5 79 -15 31 -28 42 -73 58 -81 30 -100
43 -100 69 0 51 79 75 129 40 19 -14 25 -14 32 -3 14 22 11 37 -11 49 -23 12
-96 20 -126 14z"/>
<path d="M12660 4390 l0 -200 30 0 30 0 0 90 0 90 100 0 100 0 0 -90 0 -90 30
0 30 0 0 200 0 200 -30 0 -30 0 0 -85 0 -85 -100 0 -100 0 0 85 0 85 -30 0
-30 0 0 -200z"/>
<path d="M13150 4390 l0 -200 120 0 120 0 0 25 c0 25 -1 25 -90 25 l-90 0 0
65 0 65 75 0 c73 0 75 1 75 25 0 24 -2 25 -75 25 l-75 0 0 60 0 60 90 0 c89 0
90 0 90 25 l0 25 -120 0 -120 0 0 -200z"/>
<path d="M13540 4390 l0 -200 30 0 30 0 0 80 0 80 28 0 c23 0 36 -13 82 -77
47 -67 60 -78 88 -81 17 -2 32 0 32 3 0 4 -27 44 -59 90 -59 82 -59 83 -35 89
56 14 83 119 44 169 -26 33 -75 47 -167 47 l-73 0 0 -200z m180 130 c50 -50 6
-120 -76 -120 l-44 0 0 70 0 70 50 0 c37 0 55 -5 70 -20z"/>
<path d="M13960 4390 l0 -200 120 0 120 0 0 25 c0 25 -1 25 -90 25 l-90 0 0
65 0 65 75 0 c73 0 75 1 75 25 0 24 -2 25 -75 25 l-75 0 0 60 0 60 90 0 c89 0
90 0 90 25 l0 25 -120 0 -120 0 0 -200z"/>
</g>
</svg>
